<?xml version="1.0" standalone="no"?>
<!DOCTYPE svg PUBLIC "-//W3C//DTD SVG 20010904//EN"
 "http://www.w3.org/TR/2001/REC-SVG-20010904/DTD/svg10.dtd">
<svg version="1.0" xmlns="http://www.w3.org/2000/svg"
 width="260.000000pt" height="260.000000pt" viewBox="0 0 260.000000 260.000000"
 preserveAspectRatio="xMidYMid meet">
<metadata>
Created by potrace 1.14, written by Peter Selinger 2001-2017
</metadata>
<g transform="translate(0.000000,260.000000) scale(0.100000,-0.100000)"
fill="#000000" stroke="none">
<path d="M1270 2294 c-138 -26 -251 -86 -351 -186 -50 -50 -135 -175 -126
-184 2 -2 17 7 33 21 71 63 227 132 344 153 77 14 221 12 288 -5 31 -8 68 -17
82 -20 41 -10 189 -90 239 -130 25 -20 65 -58 89 -83 49 -51 145 -190 137
-198 -3 -3 -62 -6 -132 -7 l-126 -1 -66 59 c-234 207 -557 202 -769 -13 -144
-145 -203 -338 -165 -545 14 -78 76 -213 120 -261 15 -16 23 -23 17 -15 -6 9
-20 36 -32 61 -85 181 -31 420 126 561 150 136 379 162 520 59 51 -36 111
-100 112 -117 0 -7 3 -14 8 -14 32 -5 676 -3 685 3 15 9 -25 167 -71 276 -126
302 -414 547 -692 588 -74 11 -208 10 -270 -2z"/>
<path d="M880 2248 c-98 -58 -156 -93 -167 -103 -6 -5 -25 -21 -43 -34 -50
-38 -117 -110 -175 -186 -144 -190 -210 -410 -176 -587 24 -121 114 -273 193
-323 25 -15 28 -15 28 -2 0 9 -4 26 -9 40 -24 63 -35 260 -20 343 5 27 11 60
14 74 2 14 13 52 24 85 14 44 17 72 12 105 -10 68 -3 156 18 227 14 47 68 143
99 178 43 47 142 128 200 164 28 18 52 35 52 37 0 8 -15 2 -50 -18z"/>
<path d="M1873 1122 l-251 -2 -7 -33 c-23 -105 -135 -243 -254 -315 -288 -171
-635 -129 -878 106 -70 68 -119 129 -157 195 -15 26 -28 47 -30 47 -2 0 2 -19
9 -42 73 -239 221 -422 421 -522 184 -91 388 -105 584 -40 157 52 314 178 390
312 l35 62 138 0 138 0 -6 -22 c-12 -40 -56 -121 -100 -183 -116 -164 -338
-309 -560 -366 -72 -19 -117 -23 -225 -23 -145 -1 -215 12 -320 59 -71 32 -35
4 50 -40 72 -36 193 -79 255 -90 22 -4 51 -9 65 -12 48 -10 245 -6 305 6 358
72 654 327 778 671 22 61 56 193 57 222 0 10 -151 13 -437 10z"/>
</g>
</svg>
